<?xml version="1.0" encoding="utf-8"?>
<!-- Generator: Adobe Illustrator 15.0.0, SVG Export Plug-In . SVG Version: 6.00 Build 0)  -->
<!DOCTYPE svg PUBLIC "-//W3C//DTD SVG 1.1//EN" "http://www.w3.org/Graphics/SVG/1.1/DTD/svg11.dtd">
<svg version="1.1" id="Calque_1" xmlns="http://www.w3.org/2000/svg" xmlns:xlink="http://www.w3.org/1999/xlink" x="0px" y="0px"
	 width="47px" height="37px" viewBox="0 0 47 37" enable-background="new 0 0 47 37" xml:space="preserve">
<path fill="#FFFFFF" d="M5.479,0.667v35.722H0.99V0.667H5.479z"/>
<path fill="#FFFFFF" d="M41.109,31.059c-6.986,6.984-18.27,6.984-25.208,0c-6.988-6.939-6.988-18.222,0-25.208
	c6.938-6.988,18.221-6.988,25.208,0l-3.02,3.068c-5.289-5.195-13.928-5.195-19.121,0c-5.239,5.24-5.239,13.878,0,19.118
	c5.193,5.24,13.832,5.24,19.121,0L41.109,31.059z"/>
<path fill="#FFFFFF" d="M32.275,18.697l10.633-10.41c0,0,7.066,10.181-0.133,20.676L32.275,18.697z"/>
</svg>
