<?xml version="1.0" encoding="utf-8"?>
<!-- Generator: Adobe Illustrator 15.0.0, SVG Export Plug-In . SVG Version: 6.00 Build 0)  -->
<!DOCTYPE svg PUBLIC "-//W3C//DTD SVG 1.1//EN" "http://www.w3.org/Graphics/SVG/1.1/DTD/svg11.dtd">
<svg version="1.1" id="Calque_1" xmlns="http://www.w3.org/2000/svg" xmlns:xlink="http://www.w3.org/1999/xlink" x="0px" y="0px"
	 width="144px" height="154px" viewBox="0 0 144 154" enable-background="new 0 0 144 154" xml:space="preserve">
<g>
	<g>
		<path fill="#00B5E2" d="M0.648,150.534v-10.813h1.431v10.813H0.648z"/>
		<path fill="#FFFFFF" d="M14.373,147.667l1.306,0.165c-0.14,0.895-0.509,1.608-1.096,2.119c-0.585,0.502-1.306,0.761-2.163,0.761
			c-1.069,0-1.933-0.356-2.585-1.053c-0.648-0.7-0.976-1.709-0.976-3.013c0-0.847,0.139-1.588,0.421-2.22
			c0.275-0.636,0.705-1.109,1.274-1.43c0.581-0.312,1.203-0.474,1.873-0.474c0.85,0,1.543,0.215,2.085,0.647
			c0.541,0.43,0.889,1.045,1.041,1.831l-1.288,0.199c-0.126-0.523-0.342-0.924-0.654-1.188c-0.314-0.263-0.69-0.396-1.132-0.396
			c-0.668,0-1.208,0.234-1.63,0.721c-0.415,0.478-0.629,1.23-0.629,2.271c0,1.053,0.205,1.813,0.607,2.296
			c0.405,0.475,0.93,0.709,1.575,0.709c0.521,0,0.962-0.154,1.307-0.474C14.059,148.825,14.281,148.331,14.373,147.667z"/>
		<path fill="#FFFFFF" d="M21.147,146.622c0-1.454,0.405-2.528,1.213-3.224c0.672-0.583,1.493-0.875,2.464-0.875
			c1.075,0,1.958,0.356,2.638,1.061c0.684,0.705,1.024,1.677,1.024,2.925c0,1.008-0.152,1.798-0.453,2.381
			c-0.304,0.57-0.743,1.02-1.314,1.341c-0.581,0.319-1.215,0.481-1.895,0.481c-1.098,0-1.984-0.356-2.657-1.058
			C21.494,148.954,21.147,147.941,21.147,146.622z M22.514,146.622c0,0.995,0.219,1.749,0.656,2.247
			c0.442,0.502,0.992,0.745,1.655,0.745c0.66,0,1.207-0.252,1.646-0.745c0.436-0.502,0.652-1.268,0.652-2.296
			c0-0.968-0.219-1.7-0.658-2.203c-0.442-0.499-0.989-0.745-1.64-0.745c-0.663,0-1.213,0.246-1.655,0.745
			C22.733,144.864,22.514,145.618,22.514,146.622z"/>
		<path fill="#FFFFFF" d="M34.877,150.534v-7.828h1.197v1.104c0.572-0.858,1.396-1.287,2.488-1.287c0.474,0,0.905,0.09,1.298,0.254
			c0.398,0.175,0.694,0.394,0.891,0.67c0.196,0.274,0.332,0.599,0.411,0.979c0.053,0.247,0.075,0.68,0.075,1.287v4.82h-1.326v-4.763
			c0-0.543-0.051-0.943-0.154-1.216c-0.109-0.267-0.289-0.481-0.547-0.64c-0.267-0.161-0.574-0.243-0.925-0.243
			c-0.568,0-1.055,0.179-1.468,0.543c-0.411,0.356-0.613,1.036-0.613,2.041v4.277H34.877z"/>
		<path fill="#00B5E2" d="M65.013,146.743l1.434,0.36c-0.304,1.174-0.842,2.069-1.617,2.685c-0.781,0.624-1.733,0.932-2.859,0.932
			c-1.164,0-2.113-0.242-2.841-0.713c-0.73-0.473-1.286-1.162-1.668-2.057c-0.379-0.903-0.571-1.872-0.571-2.907
			c0-1.122,0.215-2.099,0.647-2.945c0.428-0.838,1.041-1.469,1.835-1.906c0.791-0.438,1.67-0.653,2.62-0.653
			c1.081,0,1.992,0.276,2.729,0.83c0.737,0.547,1.251,1.321,1.538,2.32l-1.408,0.328c-0.245-0.785-0.616-1.359-1.09-1.712
			c-0.474-0.369-1.075-0.544-1.798-0.544c-0.832,0-1.526,0.199-2.086,0.6c-0.559,0.401-0.949,0.933-1.176,1.604
			c-0.224,0.668-0.341,1.361-0.341,2.078c0,0.914,0.136,1.716,0.407,2.404c0.269,0.688,0.681,1.194,1.247,1.535
			c0.565,0.34,1.181,0.507,1.834,0.507c0.805,0,1.48-0.224,2.04-0.689C64.443,148.334,64.819,147.655,65.013,146.743z"/>
		<path fill="#FFFFFF" d="M72.374,146.622c0-1.454,0.407-2.528,1.21-3.224c0.676-0.583,1.496-0.875,2.465-0.875
			c1.076,0,1.957,0.356,2.643,1.061c0.674,0.705,1.023,1.677,1.023,2.925c0,1.008-0.154,1.798-0.455,2.381
			c-0.303,0.57-0.744,1.02-1.322,1.341c-0.576,0.319-1.207,0.481-1.889,0.481c-1.1,0-1.984-0.356-2.654-1.058
			C72.714,148.954,72.374,147.941,72.374,146.622z M73.74,146.622c0,0.995,0.219,1.749,0.654,2.247
			c0.441,0.502,0.988,0.745,1.654,0.745c0.658,0,1.205-0.252,1.643-0.745c0.439-0.502,0.658-1.268,0.658-2.296
			c0-0.968-0.219-1.7-0.664-2.203c-0.438-0.499-0.982-0.745-1.637-0.745c-0.666,0-1.213,0.246-1.654,0.745
			C73.959,144.864,73.74,145.618,73.74,146.622z"/>
		<path fill="#FFFFFF" d="M86.104,150.534v-7.828h1.191v1.104c0.574-0.858,1.408-1.287,2.494-1.287c0.471,0,0.9,0.09,1.301,0.254
			c0.393,0.175,0.691,0.394,0.887,0.67c0.197,0.274,0.332,0.599,0.412,0.979c0.053,0.247,0.074,0.68,0.074,1.287v4.82h-1.328v-4.763
			c0-0.543-0.045-0.943-0.15-1.216c-0.109-0.267-0.291-0.481-0.551-0.64c-0.264-0.161-0.57-0.243-0.928-0.243
			c-0.563,0-1.053,0.179-1.467,0.543c-0.404,0.356-0.605,1.036-0.605,2.041v4.277H86.104z"/>
		<path fill="#FFFFFF" d="M104.441,147.667l1.305,0.165c-0.143,0.895-0.512,1.608-1.094,2.119c-0.592,0.502-1.309,0.761-2.164,0.761
			c-1.076,0-1.934-0.356-2.59-1.053c-0.648-0.7-0.973-1.709-0.973-3.013c0-0.847,0.137-1.588,0.422-2.22
			c0.283-0.636,0.703-1.109,1.279-1.43c0.57-0.312,1.197-0.474,1.861-0.474c0.855,0,1.549,0.215,2.092,0.647
			c0.541,0.43,0.887,1.045,1.039,1.831l-1.291,0.199c-0.121-0.523-0.34-0.924-0.652-1.188c-0.313-0.263-0.688-0.396-1.129-0.396
			c-0.674,0-1.213,0.234-1.629,0.721c-0.422,0.478-0.627,1.23-0.627,2.271c0,1.053,0.197,1.813,0.605,2.296
			c0.402,0.475,0.928,0.709,1.572,0.709c0.523,0,0.955-0.154,1.309-0.474C104.129,148.825,104.344,148.331,104.441,147.667z"/>
		<path fill="#FFFFFF" d="M117.076,148.01l1.377,0.167c-0.223,0.802-0.623,1.426-1.207,1.866c-0.592,0.446-1.328,0.669-2.244,0.669
			c-1.148,0-2.053-0.356-2.721-1.062c-0.676-0.708-1.012-1.692-1.012-2.964c0-1.32,0.34-2.341,1.016-3.069
			c0.68-0.729,1.559-1.094,2.645-1.094c1.045,0,1.896,0.356,2.568,1.069c0.664,0.716,0.992,1.717,0.992,3.012
			c0,0.073,0,0.195-0.004,0.354h-5.844c0.047,0.858,0.295,1.519,0.729,1.972c0.438,0.462,0.982,0.685,1.641,0.685
			c0.48,0,0.906-0.125,1.242-0.384C116.604,148.979,116.873,148.574,117.076,148.01z M112.711,145.868h4.377
			c-0.057-0.664-0.223-1.158-0.498-1.482c-0.43-0.515-0.971-0.769-1.648-0.769c-0.607,0-1.121,0.202-1.533,0.61
			C112.994,144.637,112.756,145.184,112.711,145.868z"/>
		<path fill="#FFFFFF" d="M124.949,153.53v-10.824h1.211v1.016c0.287-0.401,0.607-0.7,0.967-0.895
			c0.361-0.199,0.789-0.304,1.305-0.304c0.668,0,1.264,0.174,1.77,0.519c0.514,0.345,0.895,0.829,1.154,1.458
			c0.268,0.623,0.393,1.312,0.393,2.057c0,0.802-0.143,1.527-0.434,2.163c-0.287,0.643-0.695,1.133-1.246,1.473
			c-0.551,0.342-1.131,0.52-1.729,0.52c-0.447,0-0.84-0.098-1.191-0.283c-0.361-0.187-0.641-0.422-0.871-0.705v3.807H124.949z
			 M126.148,146.662c0,1.005,0.209,1.758,0.619,2.235c0.408,0.479,0.902,0.717,1.477,0.717c0.596,0,1.094-0.243,1.523-0.745
			c0.418-0.498,0.623-1.276,0.623-2.316c0-1-0.201-1.749-0.615-2.239c-0.412-0.503-0.898-0.753-1.465-0.753s-1.07,0.267-1.498,0.801
			C126.367,144.889,126.148,145.658,126.148,146.662z"/>
		<path fill="#FFFFFF" d="M141.082,149.347l0.188,1.171c-0.373,0.076-0.705,0.113-1.004,0.113c-0.479,0-0.852-0.072-1.119-0.227
			c-0.268-0.149-0.453-0.349-0.559-0.6c-0.117-0.251-0.166-0.766-0.166-1.563v-4.507h-0.967v-1.028h0.967v-1.945l1.326-0.797v2.742
			h1.334v1.028h-1.334v4.579c0,0.378,0.014,0.62,0.064,0.729c0.047,0.109,0.125,0.194,0.234,0.259
			c0.096,0.061,0.25,0.099,0.449,0.099C140.645,149.4,140.84,149.38,141.082,149.347z"/>
	</g>
	<path fill="#FFFFFF" d="M14.814,0.647v112.917H0.625V0.647H14.814z"/>
	<path fill="#FFFFFF" d="M127.447,96.718c-22.09,22.078-57.756,22.078-79.685,0c-22.089-21.938-22.089-57.6,0-79.682
		c21.929-22.086,57.595-22.086,79.685,0l-9.549,9.699c-16.721-16.421-44.023-16.421-60.439,0c-16.563,16.563-16.563,43.866,0,60.429
		c16.416,16.563,43.718,16.563,60.439,0L127.447,96.718z"/>
	<path fill="#00B5E2" d="M99.518,57.643l33.611-32.908c0,0,22.338,32.183-0.422,65.362L99.518,57.643z"/>
	<g>
		<path fill="#FFFFFF" d="M141.338,133.493c-0.115,0.945-31.713-2.945-70.778-2.868c-39.058-0.076-70.644,3.813-70.759,2.868
			c-0.146-0.784,31.44-6.108,70.759-6.035C109.887,127.383,141.482,132.709,141.338,133.493z"/>
	</g>
</g>
</svg>
